<svg xmlns="http://www.w3.org/2000/svg" viewBox="0 0 533.5 544.3">
  <path fill="#4285F4" d="M533.5 278.4c0-17.4-1.4-34.1-4.1-50.4H272v95.3h146.9c-6.4 34.5-25.7 63.7-54.8 83.1v68.9h88.4c51.6-47.5 80.9-117.6 80.9-196.9z"/>
  <path fill="#34A853" d="M272 544.3c73.7 0 135.6-24.5 180.8-66.8l-88.4-68.9c-24.5 16.4-55.8 26-92.4 26-71.1 0-131.6-47.9-153.3-112.2H28.9v70.8C73.7 483.7 167.7 544.3 272 544.3z"/>
  <path fill="#FBBC05" d="M118.7 322.4c-5.5-16.4-8.7-33.9-8.7-52s3.2-35.6 8.7-52v-70.8H28.9C10.4 198.3 0 241.1 0 290.4s10.4 92.1 28.9 143.2l89.8-70.8z"/>
  <path fill="#EA4335" d="M272 107.7c39.9 0 75.6 13.7 103.6 40.6l77.7-77.7C407.6 24.2 345.7 0 272 0 167.7 0 73.7 60.6 28.9 147.2l89.8 70.8C140.4 155.5 200.9 107.7 272 107.7z"/>
</svg>

